
<svg xmlns="http://www.w3.org/2000/svg" xmlns:xlink="http://www.w3.org/1999/xlink" width="1400" height="1000" viewBox="0 0 1400 1000">

<defs>
    <!-- Auto-scaled arrow marker -->
    <marker id="arrow"
            viewBox="0 0 14 14"
            refX="14" refY="7"
            markerWidth="11" markerHeight="11"
            orient="auto-start-reverse">
        <path d="M 0 0 L 14 7 L 0 14 z"
              fill="var(--text-primary, currentColor)"
              stroke="none"/>
    </marker>

    <!-- Clip path for curve drawing area -->
    <clipPath id="clipCurves">
        <rect x="98" y="120"
              width="1190" height="800"/>
    </clipPath>
</defs>

<g ID="plotFrame" stroke="currentColor" stroke-width="1.0" stroke-linecap="round">
    <line x1="98.00" y1="120.00" x2="1288.00" y2="120.00"/>
    <line x1="98.00" y1="920.00" x2="1288.00" y2="920.00"/>
    <line x1="98.00" y1="120.00" x2="98.00" y2="920.00"/>
    <line x1="1288.00" y1="120.00" x2="1288.00" y2="920.00"/>
    <line x1="1.00" y1="1.00" x2="1399.00" y2="1.00"/>
    <line x1="1.00" y1="999.00" x2="1399.00" y2="999.00"/>
    <line x1="1.00" y1="1.00" x2="1.00" y2="999.00"/>
    <line x1="1399.00" y1="1.00" x2="1399.00" y2="999.00"/>
</g>

<!-- Reynolds related elements -->
<g ID="gridReynolds" stroke="currentColor" stroke-linecap="round" text-anchor="middle" fill="currentColor" font-family="var(--font-family-base, ui-sans-serif, system-ui, sans-serif)" font-weight="100">
    <line stroke_width="0.5" stroke-opacity="0.25" x1="98.00" y1="120.0" x2="98.00" y2="920"/>
    <text font-size="13" x="98.00" y="942">6</text>
    <line stroke_width="0.5" stroke-opacity="0.25" x1="113.26" y1="120.0" x2="113.26" y2="920"/>
    <text font-size="13" x="113.26" y="942">7</text>
    <line stroke_width="0.5" stroke-opacity="0.25" x1="126.47" y1="120.0" x2="126.47" y2="920"/>
    <text font-size="13" x="126.47" y="942">8</text>
    <line stroke_width="0.5" stroke-opacity="0.25" x1="138.13" y1="120.0" x2="138.13" y2="920"/>
    <line stroke_width="0.8" stroke-opacity="0.45" x1="148.56" y1="114.5" x2="148.56" y2="931"/>
    <text font-size="16" x="148.56" y="953">10³</text>
    <line stroke_width="0.5" stroke-opacity="0.25" x1="217.16" y1="120.0" x2="217.16" y2="920"/>
    <text font-size="13" x="217.16" y="942">2</text>
    <line stroke_width="0.5" stroke-opacity="0.25" x1="257.29" y1="120.0" x2="257.29" y2="920"/>
    <text font-size="13" x="257.29" y="942">3</text>
    <line stroke_width="0.5" stroke-opacity="0.25" x1="285.76" y1="120.0" x2="285.76" y2="920"/>
    <text font-size="13" x="285.76" y="942">4</text>
    <line stroke_width="0.5" stroke-opacity="0.25" x1="307.84" y1="120.0" x2="307.84" y2="920"/>
    <text font-size="13" x="307.84" y="942">5</text>
    <line stroke_width="0.5" stroke-opacity="0.25" x1="325.89" y1="120.0" x2="325.89" y2="920"/>
    <text font-size="13" x="325.89" y="942">6</text>
    <line stroke_width="0.5" stroke-opacity="0.25" x1="341.15" y1="120.0" x2="341.15" y2="920"/>
    <text font-size="13" x="341.15" y="942">7</text>
    <line stroke_width="0.5" stroke-opacity="0.25" x1="354.36" y1="120.0" x2="354.36" y2="920"/>
    <text font-size="13" x="354.36" y="942">8</text>
    <line stroke_width="0.5" stroke-opacity="0.25" x1="366.02" y1="120.0" x2="366.02" y2="920"/>
    <line stroke_width="0.8" stroke-opacity="0.45" x1="376.45" y1="114.5" x2="376.45" y2="931"/>
    <text font-size="16" x="376.45" y="953">10⁴</text>
    <line stroke_width="0.5" stroke-opacity="0.25" x1="445.05" y1="120.0" x2="445.05" y2="920"/>
    <text font-size="13" x="445.05" y="942">2</text>
    <line stroke_width="0.5" stroke-opacity="0.25" x1="485.18" y1="120.0" x2="485.18" y2="920"/>
    <text font-size="13" x="485.18" y="942">3</text>
    <line stroke_width="0.5" stroke-opacity="0.25" x1="513.65" y1="120.0" x2="513.65" y2="920"/>
    <text font-size="13" x="513.65" y="942">4</text>
    <line stroke_width="0.5" stroke-opacity="0.25" x1="535.73" y1="120.0" x2="535.73" y2="920"/>
    <text font-size="13" x="535.73" y="942">5</text>
    <line stroke_width="0.5" stroke-opacity="0.25" x1="553.78" y1="120.0" x2="553.78" y2="920"/>
    <text font-size="13" x="553.78" y="942">6</text>
    <line stroke_width="0.5" stroke-opacity="0.25" x1="569.03" y1="120.0" x2="569.03" y2="920"/>
    <text font-size="13" x="569.03" y="942">7</text>
    <line stroke_width="0.5" stroke-opacity="0.25" x1="582.25" y1="120.0" x2="582.25" y2="920"/>
    <text font-size="13" x="582.25" y="942">8</text>
    <line stroke_width="0.5" stroke-opacity="0.25" x1="593.91" y1="120.0" x2="593.91" y2="920"/>
    <line stroke_width="0.8" stroke-opacity="0.45" x1="604.33" y1="114.5" x2="604.33" y2="931"/>
    <text font-size="16" x="604.33" y="953">10⁵</text>
    <line stroke_width="0.5" stroke-opacity="0.25" x1="672.94" y1="120.0" x2="672.94" y2="920"/>
    <text font-size="13" x="672.94" y="942">2</text>
    <line stroke_width="0.5" stroke-opacity="0.25" x1="713.06" y1="120.0" x2="713.06" y2="920"/>
    <text font-size="13" x="713.06" y="942">3</text>
    <line stroke_width="0.5" stroke-opacity="0.25" x1="741.54" y1="120.0" x2="741.54" y2="920"/>
    <text font-size="13" x="741.54" y="942">4</text>
    <line stroke_width="0.5" stroke-opacity="0.25" x1="763.62" y1="120.0" x2="763.62" y2="920"/>
    <text font-size="13" x="763.62" y="942">5</text>
    <line stroke_width="0.5" stroke-opacity="0.25" x1="781.67" y1="120.0" x2="781.67" y2="920"/>
    <text font-size="13" x="781.67" y="942">6</text>
    <line stroke_width="0.5" stroke-opacity="0.25" x1="796.92" y1="120.0" x2="796.92" y2="920"/>
    <text font-size="13" x="796.92" y="942">7</text>
    <line stroke_width="0.5" stroke-opacity="0.25" x1="810.14" y1="120.0" x2="810.14" y2="920"/>
    <text font-size="13" x="810.14" y="942">8</text>
    <line stroke_width="0.5" stroke-opacity="0.25" x1="821.80" y1="120.0" x2="821.80" y2="920"/>
    <line stroke_width="0.8" stroke-opacity="0.45" x1="832.22" y1="114.5" x2="832.22" y2="931"/>
    <text font-size="16" x="832.22" y="953">10⁶</text>
    <line stroke_width="0.5" stroke-opacity="0.25" x1="900.82" y1="120.0" x2="900.82" y2="920"/>
    <text font-size="13" x="900.82" y="942">2</text>
    <line stroke_width="0.5" stroke-opacity="0.25" x1="940.95" y1="120.0" x2="940.95" y2="920"/>
    <text font-size="13" x="940.95" y="942">3</text>
    <line stroke_width="0.5" stroke-opacity="0.25" x1="969.43" y1="120.0" x2="969.43" y2="920"/>
    <text font-size="13" x="969.43" y="942">4</text>
    <line stroke_width="0.5" stroke-opacity="0.25" x1="991.51" y1="120.0" x2="991.51" y2="920"/>
    <text font-size="13" x="991.51" y="942">5</text>
    <line stroke_width="0.5" stroke-opacity="0.25" x1="1009.55" y1="120.0" x2="1009.55" y2="920"/>
    <text font-size="13" x="1009.55" y="942">6</text>
    <line stroke_width="0.5" stroke-opacity="0.25" x1="1024.81" y1="120.0" x2="1024.81" y2="920"/>
    <text font-size="13" x="1024.81" y="942">7</text>
    <line stroke_width="0.5" stroke-opacity="0.25" x1="1038.03" y1="120.0" x2="1038.03" y2="920"/>
    <text font-size="13" x="1038.03" y="942">8</text>
    <line stroke_width="0.5" stroke-opacity="0.25" x1="1049.68" y1="120.0" x2="1049.68" y2="920"/>
    <line stroke_width="0.8" stroke-opacity="0.45" x1="1060.11" y1="114.5" x2="1060.11" y2="931"/>
    <text font-size="16" x="1060.11" y="953">10⁷</text>
    <line stroke_width="0.5" stroke-opacity="0.25" x1="1128.71" y1="120.0" x2="1128.71" y2="920"/>
    <text font-size="13" x="1128.71" y="942">2</text>
    <line stroke_width="0.5" stroke-opacity="0.25" x1="1168.84" y1="120.0" x2="1168.84" y2="920"/>
    <text font-size="13" x="1168.84" y="942">3</text>
    <line stroke_width="0.5" stroke-opacity="0.25" x1="1197.31" y1="120.0" x2="1197.31" y2="920"/>
    <text font-size="13" x="1197.31" y="942">4</text>
    <line stroke_width="0.5" stroke-opacity="0.25" x1="1219.40" y1="120.0" x2="1219.40" y2="920"/>
    <text font-size="13" x="1219.40" y="942">5</text>
    <line stroke_width="0.5" stroke-opacity="0.25" x1="1237.44" y1="120.0" x2="1237.44" y2="920"/>
    <text font-size="13" x="1237.44" y="942">6</text>
    <line stroke_width="0.5" stroke-opacity="0.25" x1="1252.70" y1="120.0" x2="1252.70" y2="920"/>
    <text font-size="13" x="1252.70" y="942">7</text>
    <line stroke_width="0.5" stroke-opacity="0.25" x1="1265.92" y1="120.0" x2="1265.92" y2="920"/>
    <text font-size="13" x="1265.92" y="942">8</text>
    <line stroke_width="0.5" stroke-opacity="0.25" x1="1277.57" y1="120.0" x2="1277.57" y2="920"/>
    <line stroke_width="0.8" stroke-opacity="0.45" x1="1288.00" y1="114.5" x2="1288.00" y2="931"/>
    <text font-size="16" x="1288.00" y="953">10⁸</text>
</g>

<g ID="bottomTitle" font-size="24" font-family="var(--font-family-base, ui-sans-serif, system-ui, sans-serif)" font-weight="400" fill="currentColor">
    <text text-anchor="start" x="98.00" y="986.00">Moody Diagram</text>
    <text text-anchor="end" x="1288.00" y="986.00">Reynolds number R = (VD) / ν  (V in m/s, D in m, ν in m²/s)</text>
</g>

<rect ID="criticalZone" x="217.16" y="120.00" width="68.60" height="800.00" fill="currentColor" fill-opacity="0.1" stroke="none"/>

<polyline ID="completeTurbulence" points="1286.26,851.63 1254.82,833.98 1223.39,815.82 1191.96,797.12 1160.52,777.85 1129.09,757.98 1097.66,737.47 1066.22,716.27 1034.79,694.33 1003.36,671.61 971.93,648.04 940.49,623.56 909.06,598.10 877.63,571.57 846.19,543.88 814.76,514.93 783.33,484.59 751.90,452.72 720.46,419.16 689.03,383.73 657.60,346.19 626.16,306.30 594.73,263.71 563.30,218.06 531.87,168.87" fill="none" stroke="currentColor" stroke-width="0.5" stroke-dasharray="5 4" />

<g ID="reynoldsZoneAnnotations" font-size="16" font-family="var(--font-family-base, ui-sans-serif, system-ui, sans-serif)" font-weight="200" text-anchor="middle" fill="currentColor" stroke="currentColor" stroke-width="0.8" marker-end="url(#arrow)">
    <line x1="195.16" y1="171.48" x2="217.16" y2="171.48" />
    <line x1="239.16" y1="171.48" x2="217.16" y2="171.48" />
    <line x1="263.76" y1="171.48" x2="285.76" y2="171.48" />
    <line x1="307.76" y1="171.48" x2="285.76" y2="171.48" />
    <line x1="511.47" y1="171.48" x2="533.47" y2="171.48" />
    <line x1="555.47" y1="171.48" x2="533.47" y2="171.48" />
    <text x="157.58" y="163.23">Laminar</text>
    <text x="157.58" y="187.98">Flow</text>
    <text x="251.46" y="163.23">Critical</text>
    <text x="251.46" y="187.98">Zone</text>
    <text x="409.62" y="171.48">Transition Zone</text>
    <text x="861.74" y="171.48">Complete turbulence, rough pipes, R &gt; 3500/r, 1/√f = 1.14 - 2 log r</text>
</g>

<!-- Friction factor grid lines and labels -->
<g ID="frictionFactorMajorLinesGrid" stroke="currentColor" stroke-linecap="round" stroke_width="0.8" text-anchor="end" fill="currentColor" font-family="var(--font-family-base, ui-sans-serif, system-ui, sans-serif)" font-weight="100" font-size="16">
    <line stroke-opacity="0.45" x1="98" y1="920.00" x2="1288" y2="920.00"/>
    <text x="88" y="924.00">8</text>
    <line stroke-opacity="0.45" x1="98" y1="882.69" x2="1288" y2="882.69"/>
    <text x="88" y="886.69">9</text>
    <line stroke-opacity="0.45" x1="98" y1="849.32" x2="1288" y2="849.32"/>
    <text x="88" y="853.32">10⁻²</text>
    <line stroke-opacity="0.45" x1="98" y1="791.57" x2="1288" y2="791.57"/>
    <text x="88" y="795.57">12</text>
    <line stroke-opacity="0.45" x1="98" y1="742.75" x2="1288" y2="742.75"/>
    <text x="88" y="746.75">14</text>
    <line stroke-opacity="0.45" x1="98" y1="700.45" x2="1288" y2="700.45"/>
    <text x="88" y="704.45">16</text>
    <line stroke-opacity="0.45" x1="98" y1="663.15" x2="1288" y2="663.15"/>
    <text x="88" y="667.15">18</text>
    <line stroke-opacity="0.45" x1="98" y1="629.77" x2="1288" y2="629.77"/>
    <text x="88" y="633.77">20</text>
    <line stroke-opacity="0.45" x1="98" y1="559.10" x2="1288" y2="559.10"/>
    <text x="88" y="563.10">25</text>
    <line stroke-opacity="0.45" x1="98" y1="501.35" x2="1288" y2="501.35"/>
    <text x="88" y="505.35">30</text>
    <line stroke-opacity="0.45" x1="98" y1="452.52" x2="1288" y2="452.52"/>
    <text x="88" y="456.52">35</text>
    <line stroke-opacity="0.45" x1="98" y1="410.23" x2="1288" y2="410.23"/>
    <text x="88" y="414.23">40</text>
    <line stroke-opacity="0.45" x1="98" y1="372.92" x2="1288" y2="372.92"/>
    <text x="88" y="376.92">45</text>
    <line stroke-opacity="0.45" x1="98" y1="339.55" x2="1288" y2="339.55"/>
    <text x="88" y="343.55">50</text>
    <line stroke-opacity="0.45" x1="98" y1="309.36" x2="1288" y2="309.36"/>
    <text x="88" y="313.36">55</text>
    <line stroke-opacity="0.45" x1="98" y1="281.80" x2="1288" y2="281.80"/>
    <text x="88" y="285.80">60</text>
    <line stroke-opacity="0.45" x1="98" y1="232.97" x2="1288" y2="232.97"/>
    <text x="88" y="236.97">70</text>
    <line stroke-opacity="0.45" x1="98" y1="190.68" x2="1288" y2="190.68"/>
    <text x="88" y="194.68">80</text>
    <line stroke-opacity="0.45" x1="98" y1="153.37" x2="1288" y2="153.37"/>
    <text x="88" y="157.37">90</text>
    <line stroke-opacity="0.45" x1="98" y1="120.00" x2="1288" y2="120.00"/>
    <text x="88" y="124.00">10⁻¹</text>
</g>

<g ID="frictionFactorMinorLinesGrid" stroke="currentColor" stroke-linecap="round" stroke_width="0.5" stroke-opacity="0.25">
    <line x1="98" y1="900.80" x2="1288" y2="900.80"/>
    <line x1="98" y1="865.57" x2="1288" y2="865.57"/>
    <line x1="98" y1="819.13" x2="1288" y2="819.13"/>
    <line x1="98" y1="766.22" x2="1288" y2="766.22"/>
    <line x1="98" y1="720.89" x2="1288" y2="720.89"/>
    <line x1="98" y1="681.25" x2="1288" y2="681.25"/>
    <line x1="98" y1="646.02" x2="1288" y2="646.02"/>
    <line x1="98" y1="614.32" x2="1288" y2="614.32"/>
    <line x1="98" y1="599.59" x2="1288" y2="599.59"/>
    <line x1="98" y1="585.51" x2="1288" y2="585.51"/>
    <line x1="98" y1="572.03" x2="1288" y2="572.03"/>
    <line x1="98" y1="546.67" x2="1288" y2="546.67"/>
    <line x1="98" y1="534.72" x2="1288" y2="534.72"/>
    <line x1="98" y1="523.20" x2="1288" y2="523.20"/>
    <line x1="98" y1="512.08" x2="1288" y2="512.08"/>
    <line x1="98" y1="490.96" x2="1288" y2="490.96"/>
    <line x1="98" y1="480.90" x2="1288" y2="480.90"/>
    <line x1="98" y1="471.16" x2="1288" y2="471.16"/>
    <line x1="98" y1="461.70" x2="1288" y2="461.70"/>
    <line x1="98" y1="443.60" x2="1288" y2="443.60"/>
    <line x1="98" y1="434.92" x2="1288" y2="434.92"/>
    <line x1="98" y1="426.47" x2="1288" y2="426.47"/>
    <line x1="98" y1="418.25" x2="1288" y2="418.25"/>
    <line x1="98" y1="402.41" x2="1288" y2="402.41"/>
    <line x1="98" y1="394.77" x2="1288" y2="394.77"/>
    <line x1="98" y1="387.32" x2="1288" y2="387.32"/>
    <line x1="98" y1="380.04" x2="1288" y2="380.04"/>
    <line x1="98" y1="365.96" x2="1288" y2="365.96"/>
    <line x1="98" y1="359.15" x2="1288" y2="359.15"/>
    <line x1="98" y1="352.48" x2="1288" y2="352.48"/>
    <line x1="98" y1="345.95" x2="1288" y2="345.95"/>
    <line x1="98" y1="333.28" x2="1288" y2="333.28"/>
    <line x1="98" y1="327.12" x2="1288" y2="327.12"/>
    <line x1="98" y1="321.09" x2="1288" y2="321.09"/>
    <line x1="98" y1="315.17" x2="1288" y2="315.17"/>
    <line x1="98" y1="303.65" x2="1288" y2="303.65"/>
    <line x1="98" y1="298.05" x2="1288" y2="298.05"/>
    <line x1="98" y1="292.54" x2="1288" y2="292.54"/>
    <line x1="98" y1="287.12" x2="1288" y2="287.12"/>
    <line x1="98" y1="271.41" x2="1288" y2="271.41"/>
    <line x1="98" y1="261.36" x2="1288" y2="261.36"/>
    <line x1="98" y1="251.61" x2="1288" y2="251.61"/>
    <line x1="98" y1="242.15" x2="1288" y2="242.15"/>
    <line x1="98" y1="211.12" x2="1288" y2="211.12"/>
    <line x1="98" y1="171.48" x2="1288" y2="171.48"/>
    <line x1="98" y1="136.25" x2="1288" y2="136.25"/>
    <text x="43.0" y="520.0" transform="rotate(-90 43.0,520.0)" text-anchor="middle" fill="currentColor" font-family="var(--font-family-base, ui-sans-serif, system-ui, sans-serif)" font-weight="400" font-size="24">Darcy-Weisbach friction factor  f = 2 h D g/ (L V²)</text>
</g>

<!-- VD grid lines and labels -->
<g ID="vdGrid" stroke="currentColor" stroke-linecap="round" stroke_width="0.8" text-anchor="middle" fill="currentColor" font-family="var(--font-family-base, ui-sans-serif, system-ui, sans-serif)" font-weight="100" font-size="11">
    <line x1="107.70" y1="114.50" x2="107.70" y2="103.50"/>
    <text x="107.70" y="98.00">1</text>
    <line x1="176.31" y1="114.50" x2="176.31" y2="103.50"/>
    <text x="176.31" y="98.00">2</text>
    <line x1="244.91" y1="114.50" x2="244.91" y2="103.50"/>
    <text x="244.91" y="98.00">4</text>
    <line x1="285.04" y1="114.50" x2="285.04" y2="103.50"/>
    <text x="285.04" y="98.00">6</text>
    <line x1="313.51" y1="114.50" x2="313.51" y2="103.50"/>
    <text x="313.51" y="98.00">8</text>
    <line x1="335.59" y1="114.50" x2="335.59" y2="103.50"/>
    <text x="335.59" y="98.00">10</text>
    <line x1="404.19" y1="114.50" x2="404.19" y2="103.50"/>
    <text x="404.19" y="98.00">20</text>
    <line x1="472.80" y1="114.50" x2="472.80" y2="103.50"/>
    <text x="472.80" y="98.00">40</text>
    <line x1="512.92" y1="114.50" x2="512.92" y2="103.50"/>
    <text x="512.92" y="98.00">60</text>
    <line x1="563.48" y1="114.50" x2="563.48" y2="103.50"/>
    <text x="563.48" y="98.00">100</text>
    <line x1="632.08" y1="114.50" x2="632.08" y2="103.50"/>
    <text x="632.08" y="98.00">200</text>
    <line x1="700.68" y1="114.50" x2="700.68" y2="103.50"/>
    <text x="700.68" y="98.00">400</text>
    <line x1="740.81" y1="114.50" x2="740.81" y2="103.50"/>
    <text x="740.81" y="98.00">600</text>
    <line x1="791.37" y1="114.50" x2="791.37" y2="103.50"/>
    <text x="791.37" y="98.00">1000</text>
    <line x1="859.97" y1="114.50" x2="859.97" y2="103.50"/>
    <text x="859.97" y="98.00">2000</text>
    <line x1="928.57" y1="114.50" x2="928.57" y2="103.50"/>
    <text x="928.57" y="98.00">4000</text>
    <line x1="968.70" y1="114.50" x2="968.70" y2="103.50"/>
    <text x="968.70" y="98.00">6000</text>
    <line x1="1019.26" y1="114.50" x2="1019.26" y2="103.50"/>
    <text x="1019.26" y="98.00">10000</text>
    <line x1="1087.86" y1="114.50" x2="1087.86" y2="103.50"/>
    <text x="1087.86" y="98.00">20000</text>
    <line x1="1156.46" y1="114.50" x2="1156.46" y2="103.50"/>
    <text x="1156.46" y="98.00">40000</text>
    <line x1="1196.59" y1="114.50" x2="1196.59" y2="103.50"/>
    <text x="1196.59" y="98.00">60000</text>
    <line x1="1247.15" y1="114.50" x2="1247.15" y2="103.50"/>
    <text x="1247.15" y="98.00">100000</text>
    <line x1="98.00" y1="54.00" x2="1288.00" y2="54.00"/>
    <line x1="97.70" y1="54.00" x2="97.70" y2="43.00"/>
    <text x="97.70" y="37.50">0.06</text>
    <line x1="148.26" y1="54.00" x2="148.26" y2="43.00"/>
    <text x="148.26" y="37.50">0.1</text>
    <line x1="216.86" y1="54.00" x2="216.86" y2="43.00"/>
    <text x="216.86" y="37.50">0.2</text>
    <line x1="256.99" y1="54.00" x2="256.99" y2="43.00"/>
    <text x="256.99" y="37.50">0.3</text>
    <line x1="285.46" y1="54.00" x2="285.46" y2="43.00"/>
    <text x="285.46" y="37.50">0.4</text>
    <line x1="325.59" y1="54.00" x2="325.59" y2="43.00"/>
    <text x="325.59" y="37.50">0.6</text>
    <line x1="354.06" y1="54.00" x2="354.06" y2="43.00"/>
    <text x="354.06" y="37.50">0.8</text>
    <line x1="376.15" y1="54.00" x2="376.15" y2="43.00"/>
    <text x="376.15" y="37.50">1</text>
    <line x1="444.75" y1="54.00" x2="444.75" y2="43.00"/>
    <text x="444.75" y="37.50">2</text>
    <line x1="513.35" y1="54.00" x2="513.35" y2="43.00"/>
    <text x="513.35" y="37.50">4</text>
    <line x1="553.48" y1="54.00" x2="553.48" y2="43.00"/>
    <text x="553.48" y="37.50">6</text>
    <line x1="581.95" y1="54.00" x2="581.95" y2="43.00"/>
    <text x="581.95" y="37.50">8</text>
    <line x1="604.04" y1="54.00" x2="604.04" y2="43.00"/>
    <text x="604.04" y="37.50">10</text>
    <line x1="672.64" y1="54.00" x2="672.64" y2="43.00"/>
    <text x="672.64" y="37.50">20</text>
    <line x1="741.24" y1="54.00" x2="741.24" y2="43.00"/>
    <text x="741.24" y="37.50">40</text>
    <line x1="781.37" y1="54.00" x2="781.37" y2="43.00"/>
    <text x="781.37" y="37.50">60</text>
    <line x1="831.93" y1="54.00" x2="831.93" y2="43.00"/>
    <text x="831.93" y="37.50">100</text>
    <line x1="900.53" y1="54.00" x2="900.53" y2="43.00"/>
    <text x="900.53" y="37.50">200</text>
    <line x1="969.13" y1="54.00" x2="969.13" y2="43.00"/>
    <text x="969.13" y="37.50">400</text>
    <line x1="1009.26" y1="54.00" x2="1009.26" y2="43.00"/>
    <text x="1009.26" y="37.50">600</text>
    <line x1="1059.81" y1="54.00" x2="1059.81" y2="43.00"/>
    <text x="1059.81" y="37.50">1000</text>
    <line x1="1128.42" y1="54.00" x2="1128.42" y2="43.00"/>
    <text x="1128.42" y="37.50">2000</text>
    <line x1="1197.02" y1="54.00" x2="1197.02" y2="43.00"/>
    <text x="1197.02" y="37.50">4000</text>
    <line x1="1237.15" y1="54.00" x2="1237.15" y2="43.00"/>
    <text x="1237.15" y="37.50">6000</text>
    <line x1="1287.70" y1="54.00" x2="1287.70" y2="43.00"/>
    <text x="1287.70" y="37.50">10000</text>
</g>

<!-- VD grid lines and titles -->
<g ID="vdTitle" stroke="currentColor" stroke-linecap="round" text-anchor="middle" fill="currentColor" font-family="var(--font-family-base, ui-sans-serif, system-ui, sans-serif)" font-weight="100" font-size="16">
    <text x="693.00" y="81.50">VD for atmospheric air at 20°C (V in m/s, D in cm)</text>
    <text x="693.00" y="21.00">VD for water at 20°C (V in m/s, D in cm)</text>
</g>

<!-- Relative Roughness grid/lines values -->
<g ID="roughnessGridValues" stroke="currentColor" stroke-linecap="round" text-anchor="start" fill="currentColor" font-family="var(--font-family-base, ui-sans-serif, system-ui, sans-serif)" font-weight="100" font-size="13">
    <line x1="1293.50" y1="917.71" x2="1304.50" y2="917.71"/>
    <text x="1310.00" y="921.71">1e-5</text>
    <line x1="1293.50" y1="882.51" x2="1304.50" y2="882.51"/>
    <text x="1310.00" y="886.51">2e-5</text>
    <line x1="1293.50" y1="832.77" x2="1304.50" y2="832.77"/>
    <text x="1310.00" y="836.77">5e-5</text>
    <line x1="1293.50" y1="792.36" x2="1304.50" y2="792.36"/>
    <text x="1310.00" y="796.36">1e-4</text>
    <line x1="1293.50" y1="749.19" x2="1304.50" y2="749.19"/>
    <text x="1310.00" y="753.19">2e-4</text>
    <line x1="1293.50" y1="702.87" x2="1304.50" y2="702.87"/>
    <text x="1310.00" y="706.87">4e-4</text>
    <line x1="1293.50" y1="687.20" x2="1304.50" y2="687.20"/>
    <text x="1310.00" y="691.20">5e-4</text>
    <line x1="1293.50" y1="674.11" x2="1304.50" y2="674.11"/>
    <text x="1310.00" y="678.11">6e-4</text>
    <line x1="1293.50" y1="652.89" x2="1304.50" y2="652.89"/>
    <text x="1310.00" y="656.89">8e-4</text>
    <line x1="1293.50" y1="635.92" x2="1304.50" y2="635.92"/>
    <text x="1310.00" y="639.92">0.001</text>
    <line x1="1293.50" y1="603.88" x2="1304.50" y2="603.88"/>
    <text x="1310.00" y="607.88">0.0015</text>
    <line x1="1293.50" y1="580.12" x2="1304.50" y2="580.12"/>
    <text x="1310.00" y="584.12">0.002</text>
    <line x1="1293.50" y1="545.04" x2="1304.50" y2="545.04"/>
    <text x="1310.00" y="549.04">0.003</text>
    <line x1="1293.50" y1="518.92" x2="1304.50" y2="518.92"/>
    <text x="1310.00" y="522.92">0.004</text>
    <line x1="1293.50" y1="497.89" x2="1304.50" y2="497.89"/>
    <text x="1310.00" y="501.89">0.005</text>
    <line x1="1293.50" y1="480.17" x2="1304.50" y2="480.17"/>
    <text x="1310.00" y="484.17">0.006</text>
    <line x1="1293.50" y1="451.17" x2="1304.50" y2="451.17"/>
    <text x="1310.00" y="455.17">0.008</text>
    <line x1="1293.50" y1="427.72" x2="1304.50" y2="427.72"/>
    <text x="1310.00" y="431.72">0.01</text>
    <line x1="1293.50" y1="403.37" x2="1304.50" y2="403.37"/>
    <text x="1310.00" y="407.37">0.0125</text>
    <line x1="1293.50" y1="382.76" x2="1304.50" y2="382.76"/>
    <text x="1310.00" y="386.76">0.015</text>
    <line x1="1293.50" y1="364.79" x2="1304.50" y2="364.79"/>
    <text x="1310.00" y="368.79">0.0175</text>
    <line x1="1293.50" y1="348.80" x2="1304.50" y2="348.80"/>
    <text x="1310.00" y="352.80">0.02</text>
    <line x1="1293.50" y1="321.15" x2="1304.50" y2="321.15"/>
    <text x="1310.00" y="325.15">0.025</text>
    <line x1="1293.50" y1="297.62" x2="1304.50" y2="297.62"/>
    <text x="1310.00" y="301.62">0.03</text>
    <line x1="1293.50" y1="277.03" x2="1304.50" y2="277.03"/>
    <text x="1310.00" y="281.03">0.035</text>
    <line x1="1293.50" y1="258.63" x2="1304.50" y2="258.63"/>
    <text x="1310.00" y="262.63">0.04</text>
    <line x1="1293.50" y1="241.95" x2="1304.50" y2="241.95"/>
    <text x="1310.00" y="245.95">0.045</text>
    <line x1="1293.50" y1="226.64" x2="1304.50" y2="226.64"/>
    <text x="1310.00" y="230.64">0.05</text>
    <line x1="1293.50" y1="199.25" x2="1304.50" y2="199.25"/>
    <text x="1310.00" y="203.25">0.06</text>
    <line x1="1293.50" y1="175.13" x2="1304.50" y2="175.13"/>
    <text x="1310.00" y="179.13">0.07</text>
</g>

<!-- Relative Roughness Title -->
<g ID="roughnessTitle" text-anchor="middle" fill="currentColor" font-family="var(--font-family-base, ui-sans-serif, system-ui, sans-serif)" font-weight="400" font-size="24">
    <text x="1376.0" y="520.0" transform="rotate(-90 1376.0,520.0)" >Relative roughness  r = ε / D  (ε in mm, D in mm)</text></g>

<!-- Smooth Pipe Line -->
<g ID="smoothPipeLine">
    <polyline ID="smoothPipe" points="230.99,357.09 258.09,384.20 285.20,410.39 312.30,435.53 339.40,460.02 366.50,483.65 393.61,506.53 420.71,528.71 447.81,550.23 474.92,570.97 502.02,591.31 529.12,611.10 556.22,630.36 583.33,649.00 610.43,667.39 637.53,685.21 664.64,702.60 691.74,719.56 718.84,735.86 745.94,751.99 773.05,767.76 800.15,783.19 827.25,798.27 854.36,813.04 881.46,827.49 908.56,841.65 935.66,855.53 962.77,869.13 989.87,882.47 1016.97,895.55 1044.07,908.39" fill="none" stroke="currentColor" stroke-width="0.8"/>
</g>

<!-- Hagen-Poiseuille Line -->
<g ID="hagenPoiseuilleLine">
    <polyline ID="hagenPoiseuille" points="111.76,143.58 123.83,182.23 134.59,216.67 144.30,247.73 153.14,276.02 161.25,301.98 168.75,325.98 175.72,348.28 182.23,369.12 188.34,388.67 194.09,407.08 199.53,424.49 204.68,440.98 209.58,456.66 214.25,471.60 218.71,485.87 222.97,499.52 227.06,512.61 230.99,525.17" fill="none" stroke="currentColor" stroke-width="0.8"/>
</g>

<!-- Equations Text Block -->
<g ID="equationsTextBlock" font-size="11" font-family="var(--font-family-base, ui-sans-serif, system-ui, sans-serif)" font-weight="200" text-anchor="start" fill="currentColor" stroke="currentColor">
    <text x="451.0" y="678">Smooth pipes, r = 0</text>
    <text x="451.0" y="700">1/√f = 2 log(R √f) - 0.8</text>
    <text x="451.0" y="722"> </text>
    <text x="451.0" y="744">Hagen-Poiseuille equation</text>
    <text x="451.0" y="766">R ≤ 2300,  f = 64/R</text>
    <text x="451.0" y="788"> </text>
    <text x="451.0" y="810">Colebrook equation, (R ≥ 2300)</text>
    <text x="451.0" y="832">1/√f = -2 log(r/3.7 + 2.51/(R √f))</text>
    <text x="451.0" y="854"> </text>
    <text x="451.0" y="876">Continuity equation Q = A V</text>
    <text x="451.0" y="898">A = π D²/4, V = 4Q(π D²)</text>
</g>

<!-- Information Text Block -->
<g ID="informationTextBlock" font-size="11" font-family="var(--font-family-base, ui-sans-serif, system-ui, sans-serif)" font-weight="200" text-anchor="start" fill="currentColor" stroke="currentColor">
    <text x="131" y="524">Material</text>
    <text x="296" y="524">ε (mm)</text>
    <text x="131" y="546">Riveted steel</text>
    <text x="296" y="546">0.9 - 9</text>
    <text x="131" y="568">Concrete</text>
    <text x="296" y="568">0.3 - 3</text>
    <text x="131" y="590">Wood stave</text>
    <text x="296" y="590">0.18 - 0.9</text>
    <text x="131" y="612">Cast iron</text>
    <text x="296" y="612">0.25</text>
    <text x="131" y="634">Galvanized iron</text>
    <text x="296" y="634">0.15</text>
    <text x="131" y="656">Asphalted cast iron</text>
    <text x="296" y="656">0.12</text>
    <text x="131" y="678">Commercial steel</text>
    <text x="296" y="678">0.046</text>
    <text x="131" y="700">Drawn tubing</text>
    <text x="296" y="700">0.0015</text>
    <text x="131" y="744">Fluid at 20°C</text>
    <text x="296" y="744">ν (m²/s)</text>
    <text x="131" y="766">Water</text>
    <text x="296" y="766">1.003e-006</text>
    <text x="131" y="788">Air (101.325 kPa)</text>
    <text x="296" y="788">1.511e-005</text>
    <text x="131" y="832">Latitude (WGS84)</text>
    <text x="296" y="832">g (m/s²)</text>
    <text x="131" y="854">0.00° Sea Level</text>
    <text x="296" y="854">9.78033</text>
    <text x="131" y="876">45.5° Standard</text>
    <text x="296" y="876">9.80665</text>
    <text x="131" y="898">90° Sea Level</text>
    <text x="296" y="898">9.83219</text>
</g>

<!-- Colebrook Curves -->
<g ID="colebrookCurves" fill="none" stroke="currentColor" stroke-width="0.8">
    <polyline points="230.99,357.11 286.62,411.73 342.25,462.49 397.89,509.95 453.52,554.45 509.15,596.19 564.78,635.78 620.42,672.99 676.05,708.15 731.68,740.92 787.31,771.76 842.94,800.31 898.58,826.26 954.21,849.19 1009.84,868.61 1065.47,884.16 1121.10,895.81 1176.74,903.96 1232.37,909.36 1288.00,912.68"/>
    <polyline points="230.99,357.06 286.62,411.65 342.25,462.36 397.89,509.76 453.52,553.99 509.15,595.76 564.78,635.01 620.42,671.93 676.05,706.28 731.68,738.34 787.31,767.78 842.94,794.28 898.58,817.36 954.21,836.56 1009.84,851.60 1065.47,862.61 1121.10,870.15 1176.74,875.04 1232.37,878.03 1288.00,879.81"/>
    <polyline points="230.99,356.90 286.62,411.41 342.25,461.85 397.89,509.20 453.52,553.16 509.15,594.46 564.78,633.02 620.42,668.82 676.05,701.47 731.68,731.04 787.31,756.96 842.94,778.73 898.58,796.02 954.21,808.88 1009.84,817.81 1065.47,823.65 1121.10,827.31 1176.74,829.49 1232.37,830.77 1288.00,831.52"/>
    <polyline points="230.99,356.63 286.62,411.02 342.25,461.26 397.89,508.27 453.52,551.78 509.15,592.34 564.78,629.77 620.42,663.86 676.05,694.00 731.68,720.18 787.31,741.74 842.94,758.49 898.58,770.65 954.21,778.90 1009.84,784.21 1065.47,787.48 1121.10,789.42 1176.74,790.56 1232.37,791.22 1288.00,791.60"/>
    <polyline points="230.99,356.08 286.62,410.24 342.25,460.08 397.89,506.33 453.52,549.05 509.15,588.20 564.78,623.54 620.42,654.42 676.05,680.75 731.68,702.00 787.31,718.11 842.94,729.52 898.58,737.11 954.21,741.91 1009.84,744.84 1065.47,746.56 1121.10,747.56 1176.74,748.14 1232.37,748.48 1288.00,748.67"/>
    <polyline points="230.99,355.00 286.62,408.55 342.25,457.86 397.89,502.82 453.52,543.78 509.15,580.36 564.78,611.89 620.42,638.27 676.05,659.07 731.68,674.46 787.31,685.10 842.94,692.04 898.58,696.36 954.21,698.97 1009.84,700.50 1065.47,701.38 1121.10,701.89 1176.74,702.19 1232.37,702.36 1288.00,702.45"/>
    <polyline points="230.99,354.47 286.62,407.75 342.25,456.50 397.89,501.01 453.52,541.22 509.15,576.46 564.78,606.59 620.42,631.12 676.05,649.94 731.68,663.44 787.31,672.54 842.94,678.33 898.58,681.88 954.21,684.00 1009.84,685.23 1065.47,685.95 1121.10,686.36 1176.74,686.59 1232.37,686.73 1288.00,686.81"/>
    <polyline points="230.99,353.93 286.62,406.96 342.25,455.45 397.89,499.39 453.52,538.72 509.15,572.83 564.78,601.56 620.42,624.48 676.05,641.64 731.68,653.67 787.31,661.61 842.94,666.58 898.58,669.59 954.21,671.38 1009.84,672.41 1065.47,673.01 1121.10,673.35 1176.74,673.55 1232.37,673.66 1288.00,673.73"/>
    <polyline points="230.99,352.87 286.62,405.39 342.25,453.19 397.89,496.04 453.52,533.68 509.15,565.90 564.78,592.19 620.42,612.43 676.05,627.02 731.68,636.89 787.31,643.20 842.94,647.07 898.58,649.39 954.21,650.74 1009.84,651.52 1065.47,651.97 1121.10,652.23 1176.74,652.38 1232.37,652.46 1288.00,652.51"/>
    <polyline points="230.99,351.81 286.62,403.83 342.25,450.80 397.89,492.62 453.52,528.96 509.15,559.38 564.78,583.60 620.42,601.71 676.05,614.39 731.68,622.75 787.31,627.99 842.94,631.16 898.58,633.04 954.21,634.13 1009.84,634.76 1065.47,635.12 1121.10,635.32 1176.74,635.44 1232.37,635.51 1288.00,635.55"/>
    <polyline points="230.99,349.31 286.62,400.00 342.25,445.25 397.89,484.68 453.52,517.90 509.15,544.60 564.78,564.80 620.42,579.12 676.05,588.66 731.68,594.69 787.31,598.37 842.94,600.55 898.58,601.82 954.21,602.55 1009.84,602.98 1065.47,603.22 1121.10,603.36 1176.74,603.44 1232.37,603.48 1288.00,603.51"/>
    <polyline points="230.99,346.73 286.62,396.26 342.25,439.90 397.89,477.20 453.52,507.78 509.15,531.53 564.78,548.84 620.42,560.67 676.05,568.31 731.68,573.02 787.31,575.85 842.94,577.51 898.58,578.47 954.21,579.03 1009.84,579.34 1065.47,579.53 1121.10,579.63 1176.74,579.69 1232.37,579.72 1288.00,579.74"/>
    <polyline points="230.99,341.68 286.62,389.04 342.25,429.77 397.89,463.39 453.52,489.75 509.15,509.19 564.78,522.62 620.42,531.37 676.05,536.82 731.68,540.10 787.31,542.03 842.94,543.16 898.58,543.80 954.21,544.18 1009.84,544.39 1065.47,544.51 1121.10,544.58 1176.74,544.62 1232.37,544.64 1288.00,544.65"/>
    <polyline points="230.99,336.77 286.62,382.13 342.25,420.29 397.89,450.88 453.52,474.02 509.15,490.44 564.78,501.40 620.42,508.34 676.05,512.57 731.68,515.08 787.31,516.55 842.94,517.40 898.58,517.88 954.21,518.16 1009.84,518.32 1065.47,518.41 1121.10,518.46 1176.74,518.49 1232.37,518.51 1288.00,518.52"/>
    <polyline points="230.99,331.98 286.62,375.50 342.25,411.39 397.89,439.43 453.52,460.03 509.15,474.24 564.78,483.48 620.42,489.22 676.05,492.68 731.68,494.71 787.31,495.90 842.94,496.58 898.58,496.97 954.21,497.19 1009.84,497.32 1065.47,497.39 1121.10,497.44 1176.74,497.46 1232.37,497.47 1288.00,497.48"/>
    <polyline points="230.99,327.32 286.62,369.21 342.25,403.00 397.89,428.86 453.52,447.42 509.15,459.92 564.78,467.91 620.42,472.81 676.05,475.73 731.68,477.44 787.31,478.43 842.94,479.00 898.58,479.33 954.21,479.51 1009.84,479.62 1065.47,479.68 1121.10,479.72 1176.74,479.74 1232.37,479.75 1288.00,479.75"/>
    <polyline points="230.99,318.32 286.62,357.16 342.25,387.49 397.89,409.87 453.52,425.33 509.15,435.41 564.78,441.69 620.42,445.47 676.05,447.70 731.68,448.99 787.31,449.74 842.94,450.17 898.58,450.41 954.21,450.55 1009.84,450.63 1065.47,450.68 1121.10,450.71 1176.74,450.72 1232.37,450.73 1288.00,450.73"/>
    <polyline points="230.99,309.73 286.62,345.92 342.25,373.41 397.89,393.11 453.52,406.35 509.15,414.79 564.78,419.95 620.42,423.03 676.05,424.83 731.68,425.88 787.31,426.48 842.94,426.82 898.58,427.02 954.21,427.13 1009.84,427.19 1065.47,427.23 1121.10,427.25 1176.74,427.26 1232.37,427.27 1288.00,427.27"/>
    <polyline points="230.99,299.52 286.62,332.83 342.25,357.44 397.89,374.56 453.52,385.77 509.15,392.77 564.78,397.00 620.42,399.50 676.05,400.95 731.68,401.79 787.31,402.27 842.94,402.54 898.58,402.70 954.21,402.79 1009.84,402.84 1065.47,402.87 1121.10,402.89 1176.74,402.90 1232.37,402.90 1288.00,402.91"/>
    <polyline points="230.99,289.82 286.62,320.68 342.25,342.92 397.89,358.05 453.52,367.76 509.15,373.75 564.78,377.33 620.42,379.43 676.05,380.64 731.68,381.34 787.31,381.75 842.94,381.98 898.58,382.11 954.21,382.18 1009.84,382.22 1065.47,382.25 1121.10,382.26 1176.74,382.27 1232.37,382.27 1288.00,382.28"/>
    <polyline points="230.99,280.59 286.62,309.31 342.25,329.60 397.89,343.14 453.52,351.71 509.15,356.94 564.78,360.04 620.42,361.85 676.05,362.89 731.68,363.50 787.31,363.84 842.94,364.04 898.58,364.15 954.21,364.21 1009.84,364.25 1065.47,364.27 1121.10,364.28 1176.74,364.29 1232.37,364.29 1288.00,364.30"/>
    <polyline points="230.99,271.78 286.62,298.63 342.25,317.28 397.89,329.53 453.52,337.19 509.15,341.82 564.78,344.56 620.42,346.15 676.05,347.07 731.68,347.60 787.31,347.90 842.94,348.07 898.58,348.17 954.21,348.22 1009.84,348.26 1065.47,348.27 1121.10,348.28 1176.74,348.29 1232.37,348.29 1288.00,348.30"/>
    <polyline points="230.99,255.26 286.62,278.96 342.25,295.03 397.89,305.31 453.52,311.63 509.15,315.41 564.78,317.62 620.42,318.90 676.05,319.64 731.68,320.06 787.31,320.30 842.94,320.44 898.58,320.52 954.21,320.57 1009.84,320.59 1065.47,320.61 1121.10,320.61 1176.74,320.62 1232.37,320.62 1288.00,320.62"/>
    <polyline points="230.99,239.99 286.62,261.22 342.25,275.29 397.89,284.15 453.52,289.53 509.15,292.71 564.78,294.57 620.42,295.64 676.05,296.26 731.68,296.61 787.31,296.81 842.94,296.93 898.58,296.99 954.21,297.03 1009.84,297.05 1065.47,297.06 1121.10,297.07 1176.74,297.08 1232.37,297.08 1288.00,297.08"/>
    <polyline points="230.99,225.78 286.62,244.99 342.25,257.51 397.89,265.28 453.52,269.96 509.15,272.71 564.78,274.31 620.42,275.23 676.05,275.76 731.68,276.07 787.31,276.24 842.94,276.34 898.58,276.39 954.21,276.42 1009.84,276.44 1065.47,276.45 1121.10,276.46 1176.74,276.46 1232.37,276.46 1288.00,276.47"/>
    <polyline points="230.99,212.47 286.62,230.01 342.25,241.27 397.89,248.20 453.52,252.33 509.15,254.76 564.78,256.16 620.42,256.97 676.05,257.44 731.68,257.70 787.31,257.85 842.94,257.94 898.58,257.99 954.21,258.02 1009.84,258.03 1065.47,258.04 1121.10,258.05 1176.74,258.05 1232.37,258.05 1288.00,258.05"/>
    <polyline points="230.99,199.94 286.62,216.07 342.25,226.30 397.89,232.55 453.52,236.25 509.15,238.42 564.78,239.67 620.42,240.39 676.05,240.80 731.68,241.04 787.31,241.18 842.94,241.25 898.58,241.30 954.21,241.32 1009.84,241.33 1065.47,241.34 1121.10,241.35 1176.74,241.35 1232.37,241.35 1288.00,241.35"/>
    <polyline points="230.99,188.09 286.62,203.01 342.25,212.39 397.89,218.07 453.52,221.43 509.15,223.39 564.78,224.52 620.42,225.17 676.05,225.54 731.68,225.75 787.31,225.87 842.94,225.94 898.58,225.98 954.21,226.00 1009.84,226.02 1065.47,226.02 1121.10,226.03 1176.74,226.03 1232.37,226.03 1288.00,226.03"/>
    <polyline points="230.99,166.12 286.62,179.10 342.25,187.13 397.89,191.94 453.52,194.77 509.15,196.41 564.78,197.35 620.42,197.89 676.05,198.20 731.68,198.38 787.31,198.48 842.94,198.54 898.58,198.57 954.21,198.59 1009.84,198.60 1065.47,198.61 1121.10,198.61 1176.74,198.61 1232.37,198.61 1288.00,198.61"/>
    <polyline points="230.99,146.06 286.62,157.53 342.25,164.55 397.89,168.72 453.52,171.16 509.15,172.57 564.78,173.38 620.42,173.85 676.05,174.11 731.68,174.27 787.31,174.35 842.94,174.40 898.58,174.43 954.21,174.45 1009.84,174.46 1065.47,174.46 1121.10,174.46 1176.74,174.47 1232.37,174.47 1288.00,174.47"/>
</g>

<!-- Generated by Moody Diagram Generator; ductulator.org -->
</svg>
